<?xml version="1.0" standalone="no"?>
<!DOCTYPE svg PUBLIC "-//W3C//DTD SVG 20010904//EN"
 "http://www.w3.org/TR/2001/REC-SVG-20010904/DTD/svg10.dtd">
<svg version="1.0" xmlns="http://www.w3.org/2000/svg"
 width="300.000000pt" height="194.000000pt" viewBox="0 0 300.000000 194.000000"
 preserveAspectRatio="xMidYMid meet">
<metadata>
Created by potrace 1.10, written by Peter Selinger 2001-2011
</metadata>
<g transform="translate(0.000000,194.000000) scale(0.100000,-0.100000)"
fill="#ffffff" stroke="none">
<path d="M950 1594 c-57 -25 -99 -62 -130 -117 -25 -43 -30 -63 -30 -116 0
-51 -5 -70 -23 -95 -36 -49 -47 -83 -47 -147 0 -74 28 -137 81 -183 55 -47 97
-56 261 -56 l145 0 8 -262 c8 -287 14 -320 68 -377 89 -93 209 -94 299 -1 64
66 71 99 66 290 -4 144 -6 159 -32 212 -54 114 -166 194 -285 205 -58 5 -59 6
-70 44 -25 83 -130 159 -222 159 -45 1 -107 30 -143 68 -34 37 -30 57 14 66
18 3 255 6 527 6 422 0 499 -2 530 -15 47 -20 73 -43 73 -66 0 -35 -39 -43
-222 -49 l-178 -5 -30 -30 c-42 -43 -49 -90 -18 -135 39 -57 56 -61 223 -58
143 3 152 4 197 31 57 33 98 98 106 164 3 26 18 71 34 101 54 103 29 247 -55
318 -77 65 -62 64 -612 63 -422 0 -505 -2 -535 -15z m1077 -39 c62 -31 102
-81 120 -149 16 -63 9 -106 -28 -173 -16 -30 -29 -68 -29 -87 0 -71 -36 -125
-105 -157 -33 -15 -66 -19 -192 -19 l-152 0 -20 26 c-37 48 -22 103 34 124 15
6 93 10 175 9 129 0 155 2 194 20 26 11 49 28 53 37 10 26 -29 86 -73 111
l-39 23 -533 0 c-471 0 -538 -2 -568 -16 -43 -20 -43 -41 -1 -95 40 -53 90
-79 171 -89 113 -14 173 -59 201 -152 l12 -43 69 -8 c127 -14 221 -79 273
-187 24 -50 26 -68 29 -205 3 -90 0 -164 -7 -186 -43 -144 -234 -175 -328 -52
l-28 36 -3 299 -3 298 -182 0 -183 0 -46 29 c-51 33 -98 113 -98 168 0 41 22
95 56 140 18 23 23 39 18 58 -24 95 58 223 164 255 15 5 245 9 513 9 l485 1
51 -25z"/>
</g>
</svg>
